<svg xmlns="http://www.w3.org/2000/svg" viewBox="0 0 240 240" role="img" aria-labelledby="title desc">
  <title id="title">Social and emotional learning icon</title>
  <desc id="desc">Children gathered around a kindergarten building, representing belonging, relationships and emotional learning.</desc>
  <defs>
    <linearGradient id="social-bg" x1="39" y1="27" x2="202" y2="213" gradientUnits="userSpaceOnUse">
      <stop stop-color="#EA0B8C"/>
      <stop offset="1" stop-color="#A40862"/>
    </linearGradient>
  </defs>
  <circle cx="120" cy="120" r="104" fill="url(#social-bg)"/>
  <g fill="none" stroke="#fff" stroke-linecap="round" stroke-linejoin="round" stroke-width="7">
    <circle cx="82" cy="91" r="20"/>
    <circle cx="124" cy="67" r="18"/>
    <circle cx="166" cy="77" r="18"/>
    <path d="M54 178c2-34 10-55 28-55s27 19 30 48"/>
    <path d="M104 93c-2-20-1-36 12-40"/>
    <path d="M136 91c11-13 23-18 38-10 13 7 20 22 22 47"/>
    <path d="M116 118h60l18 18v42h-96v-42z"/>
    <path d="M127 178v-31h28v31"/>
    <path d="M118 138h16M158 138h16"/>
    <path d="M99 136c-13-8-25-12-38-12"/>
  </g>
</svg>
