<svg xmlns="http://www.w3.org/2000/svg" viewBox="0 0 240 240" role="img" aria-labelledby="title desc">
  <title id="title">Quality observations icon</title>
  <desc id="desc">Cartoony clipboard with an eye and pencil to represent observing and documenting.</desc>
  <rect width="240" height="240" rx="40" fill="#F2E3A7"/>
  <rect x="62" y="42" width="116" height="154" rx="20" fill="#FFFFFF"/>
  <rect x="96" y="28" width="48" height="28" rx="12" fill="#B59A3F"/>
  <path d="M90 88c12-16 28-24 46-24s34 8 46 24c-12 16-28 24-46 24S102 104 90 88Z" fill="#D8F0EA"/>
  <circle cx="136" cy="88" r="14" fill="#48B7A5"/>
  <circle cx="136" cy="88" r="6" fill="#242033"/>
  <path d="M90 126h60M90 148h60M90 170h44" stroke="#D6CCAF" stroke-width="8" stroke-linecap="round"/>
  <path d="m162 138 28 28-12 12-28-28 12-12Z" fill="#F6B71A"/>
  <path d="m146 154 12-12 8 8-12 12-10 2Z" fill="#6F3F97"/>
  <path d="m190 166 8 8-12 12-8-8Z" fill="#F4D48B"/>
</svg>
