<svg xmlns="http://www.w3.org/2000/svg" viewBox="0 0 240 240" role="img" aria-labelledby="title desc">
  <title id="title">Language and literacy icon</title>
  <desc id="desc">An educator reading with a child, representing shared language and literacy learning.</desc>
  <defs>
    <linearGradient id="language-bg" x1="38" y1="28" x2="202" y2="212" gradientUnits="userSpaceOnUse">
      <stop stop-color="#F6861F"/>
      <stop offset="1" stop-color="#AC5E16"/>
    </linearGradient>
  </defs>
  <circle cx="120" cy="120" r="104" fill="url(#language-bg)"/>
  <g fill="none" stroke="#fff" stroke-linecap="round" stroke-linejoin="round" stroke-width="7">
    <circle cx="96" cy="61" r="23"/>
    <circle cx="157" cy="86" r="18"/>
    <path d="M57 156c3-35 13-60 39-60 18 0 30 8 41 19"/>
    <path d="M139 126c5-13 15-21 29-19 20 3 28 22 31 49"/>
    <path d="M80 121v52"/>
    <path d="M80 121c24 0 43 8 57 23v53c-14-15-33-23-57-23z"/>
    <path d="M137 144c16-14 36-19 59-13v53c-23-6-43-1-59 13z"/>
    <path d="M96 158h24M153 163h25"/>
  </g>
</svg>
